# MagicaVoxel @ Ephtracy

# group
o 

# material
mtllib mouse.mtl
usemtl palette

# normals
vn -1 0 0
vn 1 0 0
vn 0 0 1
vn 0 0 -1
vn 0 -1 0
vn 0 1 0

# texcoords
vt 0.958984 0.5
vt 0.966797 0.5
vt 0.990234 0.5
vt 0.994141 0.5

# verts
v -1 0.3 2.9
v -1 0.3 -0.7
v -1 0.8 2.9
v -1 0.8 -0.7
v -0.9 0 2.8
v -0.9 0 -1
v -0.9 0.3 2.8
v -0.9 0.3 -0.7
v -0.9 0.3 -1
v -0.9 0.8 2.8
v -0.9 0.8 -0.7
v -0.9 1 2.8
v -0.9 1 0.9
v -0.9 1.1 0.9
v -0.9 1.1 -1
v -0.8 0 3.2
v -0.8 0 2.8
v -0.8 0.3 3.2
v -0.8 0.3 2.9
v -0.8 0.3 2.8
v -0.7 0.2 2.8
v -0.7 0.2 2.7
v -0.7 0.3 3.1
v -0.7 0.3 2.9
v -0.7 0.3 2.8
v -0.7 0.3 2.7
v -0.7 0.3 -1
v -0.7 0.3 -1.1
v -0.7 0.6 3.1
v -0.7 0.6 3
v -0.7 0.6 2.9
v -0.7 0.7 3
v -0.7 0.7 2.9
v -0.7 1.1 -1
v -0.7 1.1 -1.1
v -0.6 0.3 3.2
v -0.6 0.3 3.1
v -0.6 0.5 3.2
v -0.6 0.5 3.1
v -0.5 0.3 -1.1
v -0.5 0.3 -1.2
v -0.5 1 -1.1
v -0.5 1 -1.2
v -0.0999999 1.1 0
v -0.0999999 1.1 -0.8
v -0.0999999 1.2 0
v -0.0999999 1.2 -0.1
v -0.0999999 1.2 -0.7
v -0.0999999 1.2 -0.8
v -0.0999999 1.3 -0.1
v -0.0999999 1.3 -0.7
v 1.19209e-07 0.2 -1
v 1.19209e-07 0.2 -1.1
v 1.19209e-07 0.3 -1
v 1.19209e-07 0.3 -1.1
v 1 0.5 2.9
v 1 0.5 2.8
v 1 0.5 2.7
v 1 0.6 2.7
v 1 0.7 2.9
v 1 0.7 2.7
v 1.1 0.2 2.8
v 1.1 0.2 2.6
v 1.1 0.3 2.8
v 1.1 0.3 2.6
v 1.1 0.4 2.9
v 1.1 0.4 2.8
v 1.1 0.5 2.9
v 1.1 0.5 2.7
v 1.1 0.5 2.6
v 1.1 0.6 2.7
v 1.1 0.6 2.6
v -0.8 0.2 2.8
v -0.8 0.2 2.6
v -0.8 0.3 2.8
v -0.8 0.3 2.7
v -0.8 0.3 2.6
v -0.8 0.4 2.6
v -0.8 0.5 2.7
v -0.8 0.5 2.6
v 0.4 0.2 -1
v 0.4 0.2 -1.1
v 0.4 0.3 -1
v 0.4 0.3 -1.1
v 0.4 1.1 0
v 0.4 1.1 -0.8
v 0.4 1.2 0
v 0.4 1.2 -0.1
v 0.4 1.2 -0.7
v 0.4 1.2 -0.8
v 0.4 1.3 -0.1
v 0.4 1.3 -0.7
v 0.7 0.5 2.7
v 0.7 0.5 2.6
v 0.7 0.6 2.7
v 0.7 0.6 2.6
v 0.8 0.3 -1.1
v 0.8 0.3 -1.2
v 0.8 1 -1.1
v 0.8 1 -1.2
v 0.9 0.2 2.8
v 0.9 0.2 2.7
v 0.9 0.5 2.9
v 0.9 0.5 2.8
v 0.9 0.6 2.7
v 0.9 0.7 2.9
v 0.9 0.7 2.7
v 1 0 3.2
v 1 0 2.9
v 1 0.2 2.9
v 1 0.3 3.2
v 1 0.3 2.9
v 1 0.3 -1
v 1 0.3 -1.1
v 1 0.4 2.9
v 1 0.4 2.8
v 1 0.5 3.2
v 1 0.5 3.1
v 1 0.5 2.9
v 1 0.5 2.8
v 1 0.6 3.1
v 1 0.6 3
v 1 0.7 3
v 1 0.7 2.9
v 1 1.1 -1
v 1 1.1 -1.1
v 1.2 0 2.9
v 1.2 0 -1
v 1.2 0.3 2.9
v 1.2 0.3 -0.7
v 1.2 0.3 -1
v 1.2 0.8 2.8
v 1.2 0.8 -0.7
v 1.2 1 2.8
v 1.2 1 0.9
v 1.2 1.1 0.9
v 1.2 1.1 -1
v 1.3 0.3 2.9
v 1.3 0.3 -0.7
v 1.3 0.8 2.9
v 1.3 0.8 -0.7
v -0.8 0 3.2
v -0.8 0.3 3.2
v -0.6 0.3 3.2
v -0.6 0.5 3.2
v 1 0 3.2
v 1 0.3 3.2
v 1 0.5 3.2
v -0.7 0.3 3.1
v -0.7 0.6 3.1
v -0.6 0.3 3.1
v -0.6 0.5 3.1
v 1 0.5 3.1
v 1 0.6 3.1
v -0.7 0.6 3
v -0.7 0.7 3
v 1 0.6 3
v 1 0.7 3
v -1 0.3 2.9
v -1 0.8 2.9
v -0.8 0.3 2.9
v -0.8 0.6 2.9
v -0.7 0.3 2.9
v -0.7 0.6 2.9
v -0.7 0.7 2.9
v 1 0 2.9
v 1 0.2 2.9
v 1 0.3 2.9
v 1 0.4 2.9
v 1 0.5 2.9
v 1 0.7 2.9
v 1.1 0.2 2.9
v 1.1 0.3 2.9
v 1.1 0.4 2.9
v 1.1 0.5 2.9
v 1.2 0 2.9
v 1.2 0.3 2.9
v 1.3 0.3 2.9
v 1.3 0.8 2.9
v -0.9 0 2.8
v -0.9 0.3 2.8
v -0.9 0.8 2.8
v -0.9 1 2.8
v -0.8 0 2.8
v -0.8 0.3 2.8
v 1.2 0.8 2.8
v 1.2 1 2.8
v 0.9 0.6 2.7
v 0.9 0.7 2.7
v 1 0.6 2.7
v 1 0.7 2.7
v -0.8 0.2 2.6
v -0.8 0.3 2.6
v -0.8 0.4 2.6
v -0.8 0.5 2.6
v 0.7 0.4 2.6
v 0.7 0.5 2.6
v 0.7 0.6 2.6
v 1.1 0.2 2.6
v 1.1 0.3 2.6
v 1.1 0.5 2.6
v 1.1 0.6 2.6
v -0.9 1 0.9
v -0.9 1.1 0.9
v 1.2 1 0.9
v 1.2 1.1 0.9
v -0.0999999 1.1 0
v -0.0999999 1.2 0
v 0.4 1.1 0
v 0.4 1.2 0
v -0.0999999 1.2 -0.1
v -0.0999999 1.3 -0.1
v 0.4 1.2 -0.1
v 0.4 1.3 -0.1
v 0.9 0.5 2.9
v 0.9 0.7 2.9
v 1 0.5 2.9
v 1 0.7 2.9
v -0.8 0.2 2.8
v -0.8 0.3 2.8
v -0.7 0.2 2.8
v -0.7 0.3 2.8
v 0.9 0.2 2.8
v 0.9 0.5 2.8
v 1 0.4 2.8
v 1 0.5 2.8
v 1.1 0.2 2.8
v 1.1 0.3 2.8
v 1.1 0.4 2.8
v -0.8 0.3 2.7
v -0.8 0.5 2.7
v -0.7 0.2 2.7
v -0.7 0.3 2.7
v -0.7 0.5 2.7
v 0.7 0.5 2.7
v 0.7 0.6 2.7
v 0.9 0.2 2.7
v 0.9 0.6 2.7
v 1 0.5 2.7
v 1 0.6 2.7
v 1.1 0.5 2.7
v 1.1 0.6 2.7
v -1 0.3 -0.7
v -1 0.8 -0.7
v -0.9 0.3 -0.7
v -0.9 0.8 -0.7
v -0.0999999 1.2 -0.7
v -0.0999999 1.3 -0.7
v 0.4 1.2 -0.7
v 0.4 1.3 -0.7
v 1.2 0.3 -0.7
v 1.2 0.8 -0.7
v 1.3 0.3 -0.7
v 1.3 0.8 -0.7
v -0.0999999 1.1 -0.8
v -0.0999999 1.2 -0.8
v 0.4 1.1 -0.8
v 0.4 1.2 -0.8
v -0.9 0 -1
v -0.9 0.3 -1
v -0.9 1.1 -1
v -0.7 0.3 -1
v -0.7 1.1 -1
v 1.19209e-07 0.2 -1
v 1.19209e-07 0.3 -1
v 0.4 0.2 -1
v 0.4 0.3 -1
v 1 0.3 -1
v 1 1.1 -1
v 1.2 0 -1
v 1.2 0.3 -1
v 1.2 1.1 -1
v -0.7 0.3 -1.1
v -0.7 1.1 -1.1
v -0.5 0.3 -1.1
v -0.5 1 -1.1
v 1.19209e-07 0.2 -1.1
v 1.19209e-07 0.3 -1.1
v 0.4 0.2 -1.1
v 0.4 0.3 -1.1
v 0.8 0.3 -1.1
v 0.8 1 -1.1
v 1 0.3 -1.1
v 1 1.1 -1.1
v -0.5 0.3 -1.2
v -0.5 1 -1.2
v 0.8 0.3 -1.2
v 0.8 1 -1.2
v -0.8 0 3.2
v 1 0 3.2
v 1 0 2.9
v 1.2 0 2.9
v -0.9 0 2.8
v -0.8 0 2.8
v -0.9 0 -1
v 1.2 0 -1
v 1.19209e-07 0.2 -1
v 0.4 0.2 -1
v 1.19209e-07 0.2 -1.1
v 0.4 0.2 -1.1
v -1 0.3 2.9
v -0.8 0.3 2.9
v 1.2 0.3 2.9
v 1.3 0.3 2.9
v -0.9 0.3 2.8
v -0.8 0.3 2.8
v -0.7 0.3 2.8
v -0.8 0.3 2.7
v -0.7 0.3 2.7
v -1 0.3 -0.7
v -0.9 0.3 -0.7
v 1.2 0.3 -0.7
v 1.3 0.3 -0.7
v -0.7 0.3 -1
v 1.19209e-07 0.3 -1
v 0.4 0.3 -1
v 1 0.3 -1
v -0.7 0.3 -1.1
v -0.5 0.3 -1.1
v 1.19209e-07 0.3 -1.1
v 0.4 0.3 -1.1
v 0.8 0.3 -1.1
v 1 0.3 -1.1
v -0.5 0.3 -1.2
v 0.8 0.3 -1.2
v 1 0.5 2.9
v 1.1 0.5 2.9
v 1 0.5 2.8
v -0.8 0.5 2.7
v -0.7 0.5 2.7
v 0.7 0.5 2.7
v 1 0.5 2.7
v 1.1 0.5 2.7
v -0.8 0.5 2.6
v 0.7 0.5 2.6
v 0.7 0.6 2.7
v 0.9 0.6 2.7
v 1 0.6 2.7
v 1.1 0.6 2.7
v 0.7 0.6 2.6
v 1.1 0.6 2.6
v 0.9 0.7 2.9
v 1 0.7 2.9
v 0.9 0.7 2.7
v 1 0.7 2.7
v -0.8 0.2 2.8
v -0.7 0.2 2.8
v 0.9 0.2 2.8
v 1.1 0.2 2.8
v -0.7 0.2 2.7
v 0.9 0.2 2.7
v -0.8 0.2 2.6
v 1.1 0.2 2.6
v -0.8 0.3 3.2
v -0.6 0.3 3.2
v -0.7 0.3 3.1
v -0.6 0.3 3.1
v -0.8 0.3 2.9
v -0.7 0.3 2.9
v 1 0.4 2.9
v 1.1 0.4 2.9
v 1 0.4 2.8
v 1.1 0.4 2.8
v -0.6 0.5 3.2
v 1 0.5 3.2
v -0.6 0.5 3.1
v 1 0.5 3.1
v 0.9 0.5 2.9
v 1 0.5 2.9
v 0.9 0.5 2.8
v 1 0.5 2.8
v -0.7 0.6 3.1
v 1 0.6 3.1
v -0.7 0.6 3
v 1 0.6 3
v -0.7 0.7 3
v 1 0.7 3
v -0.7 0.7 2.9
v 1 0.7 2.9
v -1 0.8 2.9
v 1.3 0.8 2.9
v -0.9 0.8 2.8
v 1.2 0.8 2.8
v -1 0.8 -0.7
v -0.9 0.8 -0.7
v 1.2 0.8 -0.7
v 1.3 0.8 -0.7
v -0.9 1 2.8
v 1.2 1 2.8
v -0.9 1 0.9
v 1.2 1 0.9
v -0.5 1 -1.1
v 0.8 1 -1.1
v -0.5 1 -1.2
v 0.8 1 -1.2
v -0.9 1.1 0.9
v 1.2 1.1 0.9
v -0.0999999 1.1 0.0999999
v 0.4 1.1 0.0999999
v -0.0999999 1.1 0
v 0.4 1.1 0
v -0.0999999 1.1 -0.8
v 0.4 1.1 -0.8
v -0.0999999 1.1 -0.9
v 0.4 1.1 -0.9
v -0.9 1.1 -1
v -0.7 1.1 -1
v 1 1.1 -1
v 1.2 1.1 -1
v -0.7 1.1 -1.1
v 1 1.1 -1.1
v -0.0999999 1.2 0
v 0.4 1.2 0
v -0.0999999 1.2 -0.1
v 0.4 1.2 -0.1
v -0.0999999 1.2 -0.7
v 0.4 1.2 -0.7
v -0.0999999 1.2 -0.8
v 0.4 1.2 -0.8
v -0.0999999 1.3 -0.1
v 0.4 1.3 -0.1
v -0.0999999 1.3 -0.7
v 0.4 1.3 -0.7

# faces
f 3/1/1 2/1/1 1/1/1
f 4/1/1 2/1/1 3/1/1
f 7/3/1 6/3/1 5/3/1
f 8/3/1 6/3/1 7/3/1
f 9/3/1 6/3/1 8/3/1
f 11/1/1 9/1/1 8/1/1
f 12/1/1 11/1/1 10/1/1
f 13/1/1 11/1/1 12/1/1
f 14/1/1 11/1/1 13/1/1
f 15/1/1 9/1/1 11/1/1
f 15/1/1 11/1/1 14/1/1
f 18/3/1 17/3/1 16/3/1
f 19/3/1 17/3/1 18/3/1
f 20/3/1 17/3/1 19/3/1
f 25/1/1 22/1/1 21/1/1
f 26/1/1 22/1/1 25/1/1
f 29/1/1 24/1/1 23/1/1
f 30/1/1 24/1/1 29/1/1
f 31/1/1 24/1/1 30/1/1
f 32/1/1 31/1/1 30/1/1
f 33/1/1 31/1/1 32/1/1
f 34/1/1 28/1/1 27/1/1
f 35/1/1 28/1/1 34/1/1
f 38/1/1 37/1/1 36/1/1
f 39/1/1 37/1/1 38/1/1
f 42/1/1 41/1/1 40/1/1
f 43/1/1 41/1/1 42/1/1
f 46/2/1 45/2/1 44/2/1
f 47/2/1 45/2/1 46/2/1
f 48/2/1 45/2/1 47/2/1
f 49/2/1 45/2/1 48/2/1
f 50/2/1 48/2/1 47/2/1
f 51/2/1 48/2/1 50/2/1
f 54/4/1 53/4/1 52/4/1
f 55/4/1 53/4/1 54/4/1
f 59/1/1 57/1/1 56/1/1
f 59/1/1 58/1/1 57/1/1
f 60/1/1 59/1/1 56/1/1
f 61/1/1 59/1/1 60/1/1
f 64/3/1 63/3/1 62/3/1
f 65/3/1 63/3/1 64/3/1
f 67/1/1 65/1/1 64/1/1
f 68/1/1 67/1/1 66/1/1
f 69/1/1 65/1/1 67/1/1
f 69/1/1 67/1/1 68/1/1
f 70/1/1 65/1/1 69/1/1
f 71/1/1 70/1/1 69/1/1
f 72/1/1 70/1/1 71/1/1
f 73/3/2 74/3/2 75/3/2
f 75/3/2 74/3/2 76/3/2
f 76/3/2 74/3/2 77/3/2
f 76/1/2 77/1/2 78/1/2
f 76/1/2 78/1/2 79/1/2
f 79/1/2 78/1/2 80/1/2
f 81/4/2 82/4/2 83/4/2
f 83/4/2 82/4/2 84/4/2
f 85/2/2 86/2/2 87/2/2
f 87/2/2 86/2/2 88/2/2
f 88/2/2 86/2/2 89/2/2
f 89/2/2 86/2/2 90/2/2
f 88/2/2 89/2/2 91/2/2
f 91/2/2 89/2/2 92/2/2
f 93/1/2 94/1/2 95/1/2
f 95/1/2 94/1/2 96/1/2
f 97/1/2 98/1/2 99/1/2
f 99/1/2 98/1/2 100/1/2
f 101/1/2 102/1/2 104/1/2
f 104/1/2 102/1/2 105/1/2
f 103/1/2 104/1/2 105/1/2
f 103/1/2 105/1/2 106/1/2
f 106/1/2 105/1/2 107/1/2
f 108/3/2 109/3/2 110/3/2
f 108/3/2 110/3/2 111/3/2
f 111/3/2 110/3/2 112/3/2
f 111/1/2 112/1/2 115/1/2
f 111/1/2 115/1/2 117/1/2
f 117/1/2 115/1/2 118/1/2
f 115/4/2 116/4/2 119/4/2
f 118/1/2 115/1/2 119/1/2
f 119/4/2 116/4/2 120/4/2
f 118/1/2 119/1/2 121/1/2
f 121/1/2 119/1/2 122/1/2
f 122/1/2 119/1/2 123/1/2
f 123/1/2 119/1/2 124/1/2
f 113/1/2 114/1/2 125/1/2
f 125/1/2 114/1/2 126/1/2
f 127/3/2 128/3/2 129/3/2
f 129/3/2 128/3/2 130/3/2
f 130/3/2 128/3/2 131/3/2
f 130/1/2 131/1/2 133/1/2
f 132/1/2 133/1/2 134/1/2
f 134/1/2 133/1/2 135/1/2
f 135/1/2 133/1/2 136/1/2
f 133/1/2 131/1/2 137/1/2
f 136/1/2 133/1/2 137/1/2
f 138/1/2 139/1/2 140/1/2
f 140/1/2 139/1/2 141/1/2
f 144/3/3 143/3/3 142/3/3
f 146/3/3 144/3/3 142/3/3
f 147/1/3 145/1/3 144/1/3
f 147/3/3 144/3/3 146/3/3
f 148/1/3 145/1/3 147/1/3
f 151/1/3 150/1/3 149/1/3
f 152/1/3 150/1/3 151/1/3
f 153/1/3 150/1/3 152/1/3
f 154/1/3 150/1/3 153/1/3
f 157/1/3 156/1/3 155/1/3
f 158/1/3 156/1/3 157/1/3
f 161/1/3 160/1/3 159/1/3
f 162/1/3 160/1/3 161/1/3
f 163/3/3 162/3/3 161/3/3
f 164/1/3 160/1/3 162/1/3
f 164/3/3 162/3/3 163/3/3
f 165/1/3 160/1/3 164/1/3
f 171/1/3 160/1/3 165/1/3
f 172/4/3 169/4/3 168/4/3
f 172/3/3 167/3/3 166/3/3
f 172/4/3 168/4/3 167/4/3
f 173/4/3 169/4/3 172/4/3
f 174/4/3 169/4/3 173/4/3
f 175/1/3 171/1/3 170/1/3
f 176/3/3 172/3/3 166/3/3
f 176/3/3 173/3/3 172/3/3
f 177/1/3 174/1/3 173/1/3
f 177/3/3 173/3/3 176/3/3
f 177/1/3 175/1/3 174/1/3
f 178/1/3 175/1/3 177/1/3
f 179/1/3 160/1/3 171/1/3
f 179/1/3 175/1/3 178/1/3
f 179/1/3 171/1/3 175/1/3
f 184/3/3 181/3/3 180/3/3
f 185/3/3 181/3/3 184/3/3
f 186/1/3 183/1/3 182/1/3
f 187/1/3 183/1/3 186/1/3
f 190/1/3 189/1/3 188/1/3
f 191/1/3 189/1/3 190/1/3
f 196/3/3 193/3/3 192/3/3
f 196/1/3 195/1/3 194/1/3
f 196/3/3 194/3/3 193/3/3
f 197/1/3 195/1/3 196/1/3
f 199/3/3 196/3/3 192/3/3
f 199/3/3 197/3/3 196/3/3
f 200/3/3 197/3/3 199/3/3
f 201/1/3 198/1/3 197/1/3
f 201/3/3 197/3/3 200/3/3
f 202/1/3 198/1/3 201/1/3
f 205/1/3 204/1/3 203/1/3
f 206/1/3 204/1/3 205/1/3
f 209/2/3 208/2/3 207/2/3
f 210/2/3 208/2/3 209/2/3
f 213/2/3 212/2/3 211/2/3
f 214/2/3 212/2/3 213/2/3
f 215/1/4 216/1/4 217/1/4
f 217/1/4 216/1/4 218/1/4
f 219/3/4 220/3/4 221/3/4
f 221/3/4 220/3/4 222/3/4
f 223/4/4 224/4/4 225/4/4
f 225/4/4 224/4/4 226/4/4
f 223/4/4 225/4/4 227/4/4
f 227/4/4 225/4/4 228/4/4
f 228/4/4 225/4/4 229/4/4
f 230/3/4 231/3/4 233/3/4
f 233/3/4 231/3/4 234/3/4
f 232/1/4 233/1/4 235/1/4
f 233/1/4 234/1/4 235/1/4
f 232/1/4 235/1/4 237/1/4
f 235/1/4 236/1/4 237/1/4
f 237/1/4 236/1/4 238/1/4
f 239/1/4 240/1/4 241/1/4
f 241/1/4 240/1/4 242/1/4
f 243/1/4 244/1/4 245/1/4
f 245/1/4 244/1/4 246/1/4
f 247/2/4 248/2/4 249/2/4
f 249/2/4 248/2/4 250/2/4
f 251/1/4 252/1/4 253/1/4
f 253/1/4 252/1/4 254/1/4
f 255/2/4 256/2/4 257/2/4
f 257/2/4 256/2/4 258/2/4
f 259/3/4 260/3/4 262/3/4
f 260/1/4 261/1/4 262/1/4
f 262/1/4 261/1/4 263/1/4
f 259/3/4 262/3/4 264/3/4
f 264/3/4 262/3/4 265/3/4
f 259/3/4 264/3/4 266/3/4
f 266/3/4 267/3/4 268/3/4
f 266/3/4 268/3/4 270/3/4
f 259/3/4 266/3/4 270/3/4
f 268/1/4 269/1/4 271/1/4
f 270/3/4 268/3/4 271/3/4
f 271/1/4 269/1/4 272/1/4
f 273/1/4 274/1/4 275/1/4
f 275/1/4 274/1/4 276/1/4
f 277/4/4 278/4/4 279/4/4
f 279/4/4 278/4/4 280/4/4
f 276/1/4 274/1/4 282/1/4
f 281/1/4 282/1/4 283/1/4
f 282/1/4 274/1/4 284/1/4
f 283/1/4 282/1/4 284/1/4
f 285/1/4 286/1/4 287/1/4
f 287/1/4 286/1/4 288/1/4
f 291/3/5 290/3/5 289/3/5
f 294/3/5 291/3/5 289/3/5
f 294/3/5 292/3/5 291/3/5
f 295/3/5 294/3/5 293/3/5
f 296/3/5 292/3/5 294/3/5
f 296/3/5 294/3/5 295/3/5
f 299/4/5 298/4/5 297/4/5
f 300/4/5 298/4/5 299/4/5
f 305/1/5 302/1/5 301/1/5
f 306/1/5 302/1/5 305/1/5
f 308/3/5 307/3/5 306/3/5
f 309/3/5 307/3/5 308/3/5
f 310/1/5 305/1/5 301/1/5
f 311/1/5 305/1/5 310/1/5
f 312/1/5 304/1/5 303/1/5
f 313/1/5 304/1/5 312/1/5
f 318/1/5 315/1/5 314/1/5
f 319/1/5 315/1/5 318/1/5
f 320/1/5 315/1/5 319/1/5
f 321/1/5 317/1/5 316/1/5
f 322/1/5 317/1/5 321/1/5
f 323/1/5 317/1/5 322/1/5
f 324/1/5 320/1/5 319/1/5
f 324/1/5 322/1/5 321/1/5
f 324/1/5 321/1/5 320/1/5
f 325/1/5 322/1/5 324/1/5
f 328/1/5 327/1/5 326/1/5
f 332/1/5 327/1/5 328/1/5
f 333/1/5 327/1/5 332/1/5
f 334/1/5 331/1/5 330/1/5
f 334/1/5 330/1/5 329/1/5
f 335/1/5 331/1/5 334/1/5
f 340/1/5 337/1/5 336/1/5
f 340/1/5 339/1/5 338/1/5
f 340/1/5 338/1/5 337/1/5
f 341/1/5 339/1/5 340/1/5
f 344/1/5 343/1/5 342/1/5
f 345/1/5 343/1/5 344/1/5
f 346/3/6 347/3/6 350/3/6
f 348/3/6 349/3/6 351/3/6
f 346/3/6 350/3/6 352/3/6
f 350/3/6 351/3/6 352/3/6
f 351/3/6 349/3/6 353/3/6
f 352/3/6 351/3/6 353/3/6
f 354/3/6 355/3/6 356/3/6
f 356/3/6 355/3/6 357/3/6
f 354/3/6 356/3/6 358/3/6
f 358/3/6 356/3/6 359/3/6
f 360/4/6 361/4/6 362/4/6
f 362/4/6 361/4/6 363/4/6
f 364/1/6 365/1/6 366/1/6
f 366/1/6 365/1/6 367/1/6
f 368/4/6 369/4/6 370/4/6
f 370/4/6 369/4/6 371/4/6
f 372/1/6 373/1/6 374/1/6
f 374/1/6 373/1/6 375/1/6
f 376/1/6 377/1/6 378/1/6
f 378/1/6 377/1/6 379/1/6
f 380/1/6 381/1/6 382/1/6
f 382/1/6 381/1/6 383/1/6
f 380/1/6 382/1/6 384/1/6
f 384/1/6 382/1/6 385/1/6
f 383/1/6 381/1/6 386/1/6
f 386/1/6 381/1/6 387/1/6
f 388/1/6 389/1/6 390/1/6
f 390/1/6 389/1/6 391/1/6
f 392/1/6 393/1/6 394/1/6
f 394/1/6 393/1/6 395/1/6
f 396/1/6 397/1/6 398/1/6
f 398/1/6 397/1/6 399/1/6
f 396/1/6 398/1/6 400/1/6
f 398/2/6 399/2/6 400/2/6
f 399/1/6 397/1/6 401/1/6
f 400/2/6 399/2/6 401/2/6
f 396/1/6 400/1/6 402/1/6
f 401/1/6 397/1/6 403/1/6
f 396/1/6 402/1/6 404/1/6
f 402/2/6 403/2/6 404/2/6
f 403/1/6 397/1/6 405/1/6
f 404/2/6 403/2/6 405/2/6
f 396/1/6 404/1/6 406/1/6
f 404/1/6 405/1/6 406/1/6
f 406/1/6 405/1/6 407/1/6
f 405/1/6 397/1/6 408/1/6
f 407/1/6 405/1/6 408/1/6
f 408/1/6 397/1/6 409/1/6
f 407/1/6 408/1/6 410/1/6
f 410/1/6 408/1/6 411/1/6
f 412/2/6 413/2/6 414/2/6
f 414/2/6 413/2/6 415/2/6
f 416/2/6 417/2/6 418/2/6
f 418/2/6 417/2/6 419/2/6
f 420/2/6 421/2/6 422/2/6
f 422/2/6 421/2/6 423/2/6
